<svg width="575" height="251" viewBox="0 0 575 251" fill="none" xmlns="http://www.w3.org/2000/svg">
<rect width="575" height="251" rx="20" fill="#1D192B"/>
<rect x="86" y="21" width="402" height="34" rx="17" fill="#474747"/>
<path d="M204 172.393C204 193.155 220.83 210 241.575 210H337.6C356.048 210 371 195.035 371 176.571C371 160.406 359.519 146.904 344.28 143.822C345.35 141.027 345.95 137.972 345.95 134.786C345.95 120.944 334.73 109.714 320.9 109.714C315.76 109.714 310.958 111.281 306.992 113.945C299.764 101.409 286.274 93 270.8 93C247.733 93 229.05 111.699 229.05 134.786C229.05 135.491 229.076 136.196 229.102 136.901C214.49 142.046 204 155.992 204 172.393Z" fill="#37009B"/>
</svg>
