<svg width="575" height="217" viewBox="0 0 575 217" fill="none" xmlns="http://www.w3.org/2000/svg">
<rect width="575" height="217" rx="20" fill="#1D192B"/>
<rect x="86" y="21" width="402" height="34" rx="17" fill="#474747"/>
<path d="M240.542 137.219C237.767 132.594 233.246 129.781 227.8 129.781C219.648 129.781 213 136.463 213 144.656C213 152.849 219.648 159.531 227.8 159.531C233.246 159.531 237.966 156.517 240.537 152.094H254.447C253.954 149.7 253.7 147.004 253.7 144.656C253.7 142.309 253.961 139.622 254.447 137.219H240.542ZM346.2 118.625C354.352 118.625 361 111.943 361 103.75C361 95.5571 354.352 88.875 346.2 88.875C338.048 88.875 331.4 95.5571 331.4 103.75C331.4 111.943 338.06 118.625 346.2 118.625ZM346.2 163.25C343.612 163.25 341.191 163.969 339.082 165.159L319.172 153.026C319.745 150.351 320.3 147.585 320.3 144.656C320.3 140.759 319.505 137.061 318.149 133.649L333.712 122.176C329.564 119.327 326.513 115.067 325.033 110.123L309.318 121.707C304.228 117.533 297.799 114.906 290.7 114.906C288.853 114.906 287.06 115.127 285.307 115.453L276.894 97.3119C278.559 94.9133 279.6 92.022 279.6 88.875C279.6 80.6821 272.952 74 264.8 74C256.648 74 250 80.6821 250 88.875C250 96.6123 255.95 102.93 263.477 103.615L271.934 121.828C265.378 127.294 261.1 135.429 261.1 144.656C261.1 161.082 274.358 174.406 290.7 174.406C298.787 174.406 306.104 171.127 311.445 165.842L331.423 177.888C331.423 177.962 331.4 178.055 331.4 178.125C331.4 186.318 338.048 193 346.2 193C354.352 193 361 186.329 361 178.125C361 169.921 354.363 163.25 346.2 163.25ZM290.7 155.812C284.572 155.812 279.6 150.815 279.6 144.656C279.6 138.497 284.572 133.5 290.7 133.5C296.828 133.5 301.8 138.497 301.8 144.656C301.8 150.815 296.828 155.812 290.7 155.812Z" fill="#37009B"/>
</svg>
