<svg width="575" height="217" viewBox="0 0 575 217" fill="none" xmlns="http://www.w3.org/2000/svg">
<rect width="575" height="217" rx="20" fill="#1D192B"/>
<rect x="86" y="21" width="402" height="34" rx="17" fill="#474747"/>
<rect x="183" y="74" width="209" height="20" rx="10" fill="#7D7D7D"/>
<rect x="194" y="108" width="186" height="20" rx="10" fill="#7D7D7D"/>
<rect x="167" y="142" width="240" height="20" rx="10" fill="#7D7D7D"/>
<rect x="86" y="176" width="411" height="18" rx="9" fill="#413E4D"/>
<rect x="86" y="176" width="160" height="18" rx="9" fill="#90CDF4"/>
<rect width="575" height="217" rx="20" fill="#1D192B"/>
<rect x="86" y="21" width="402" height="34" rx="17" fill="#474747"/>
<rect x="183" y="74" width="209" height="20" rx="10" fill="#7D7D7D"/>
<rect x="194" y="108" width="186" height="20" rx="10" fill="#7D7D7D"/>
<rect x="167" y="142" width="240" height="20" rx="10" fill="#7D7D7D"/>
<rect x="86" y="176" width="411" height="18" rx="9" fill="#413E4D"/>
<rect x="86" y="176" width="160" height="18" rx="9" fill="#90CDF4"/>
</svg>
