<svg width="648" height="520" viewBox="0 0 648 520" fill="none" xmlns="http://www.w3.org/2000/svg">
<g filter="url(#filter0_d_19_3)">
<path d="M634.8 469.1L578.85 425.25C579.3 422.2 579.1 419.2 579.1 416L579.103 96C579.103 60.65 550.453 32 515.103 32H131.1C117.6 32 104.4 36.98 93.7799 45.06L42.8099 5.11304C32.3399 -3.05796 17.3099 -1.24596 9.10892 9.19204C0.93692 19.63 2.76492 34.72 13.1869 42.89L605.2 506.9C609.6 510.3 614.8 512 619.1 512C626.225 512 633.27 508.844 638.01 502.812C647.1 492.4 645.2 477.3 634.8 469.1ZM227.1 149.6L162.81 99.21C168.2 97.15 173.9 96 179.1 96C205.61 96 227.1 117.49 227.1 144C227.1 145.9 227.4 147.7 227.1 149.6ZM335.2 234.3L358.65 199.12C361.7 194.7 366.7 192 372 192C377.3 192 382.35 194.672 385.31 199.125L489.21 355.025L335.2 234.3ZM149.1 416C143.079 416 137.57 412.621 134.84 407.25C132.11 401.883 132.625 395.44 136.174 390.57L206.174 294.57C210.1 290.4 214.9 288 220 288C225.1 288 229.916 290.441 232.93 294.574L265.39 339.084L281.82 314.434L67.9899 146.8V416C67.9899 451.35 96.6399 480 131.99 480H493.09L411.43 416H149.1Z" fill="white"/>
</g>
<defs>
<filter id="filter0_d_19_3" x="0" y="0" width="647.839" height="520" filterUnits="userSpaceOnUse" color-interpolation-filters="sRGB">
<feFlood flood-opacity="0" result="BackgroundImageFix"/>
<feColorMatrix in="SourceAlpha" type="matrix" values="0 0 0 0 0 0 0 0 0 0 0 0 0 0 0 0 0 0 127 0" result="hardAlpha"/>
<feOffset dy="4"/>
<feGaussianBlur stdDeviation="2"/>
<feComposite in2="hardAlpha" operator="out"/>
<feColorMatrix type="matrix" values="0 0 0 0 0 0 0 0 0 0 0 0 0 0 0 0 0 0 0.25 0"/>
<feBlend mode="normal" in2="BackgroundImageFix" result="effect1_dropShadow_19_3"/>
<feBlend mode="normal" in="SourceGraphic" in2="effect1_dropShadow_19_3" result="shape"/>
</filter>
</defs>
</svg>
