<svg width="1054" height="1054" viewBox="0 0 1054 1054" fill="none" xmlns="http://www.w3.org/2000/svg">
<path d="M527 15L889.039 164.961M527 15L164.961 164.961M527 15V1039M527 15L889.039 889.039M527 15L164.961 889.039M527 15L15 527M527 15L1039 527M889.039 164.961L1039 527M889.039 164.961L164.961 889.039M889.039 164.961L15 527M889.039 164.961V889.039M889.039 164.961H164.961M1039 527L889.039 889.039M1039 527H15M1039 527L164.961 889.039M1039 527L164.961 164.961M1039 527L527 1039M889.039 889.039L527 1039M889.039 889.039L164.961 164.961M889.039 889.039L15 527M889.039 889.039H164.961M527 1039L164.961 889.039M527 1039L15 527M164.961 889.039L15 527M164.961 889.039V164.961M15 527L164.961 164.961" stroke="url(#paint0_radial_20_2)" stroke-width="30" stroke-linecap="round" stroke-linejoin="round"/>
<defs>
<radialGradient id="paint0_radial_20_2" cx="0" cy="0" r="1" gradientUnits="userSpaceOnUse" gradientTransform="translate(527 527) rotate(90) scale(512)">
<stop stop-color="#37009B"/>
<stop offset="1" stop-color="#21005D"/>
</radialGradient>
</defs>
</svg>
