<svg width="575" height="251" viewBox="0 0 575 251" fill="none" xmlns="http://www.w3.org/2000/svg">
<rect width="575" height="251" rx="10" fill="#EDF2F7"/>
<rect x="0.25" y="0.25" width="574.5" height="250.5" rx="9.75" stroke="black" stroke-opacity="0.16" stroke-width="0.5"/>
<rect x="87" y="21" width="402" height="34" rx="17" fill="#474747"/>
<path d="M282.012 81.9706C279.384 79.3431 275.134 79.3431 272.534 81.9706L245.695 108.805C243.067 111.432 243.067 115.681 245.695 118.281L270.689 143.27L266.356 147.603C259.45 144.416 251.79 142.627 243.71 142.627C234.847 142.627 226.516 144.779 219.163 148.553C216.647 149.867 216.283 153.221 218.296 155.206L248.379 185.31L243.794 189.894C243.067 189.699 242.284 189.587 241.473 189.587C236.525 189.587 232.527 193.584 232.527 198.531C232.527 203.479 236.525 207.476 241.473 207.476C246.422 207.476 250.42 203.479 250.42 198.531C250.42 197.721 250.308 196.966 250.112 196.211L254.697 191.627L284.78 221.704C286.793 223.716 290.148 223.353 291.434 220.837C295.236 213.486 297.389 205.156 297.389 196.295C297.389 188.217 295.599 180.558 292.412 173.682L296.746 169.349L321.712 194.339C324.34 196.966 328.59 196.966 331.19 194.339L358.029 167.505C360.657 164.877 360.657 160.628 358.029 158.029L333.035 133.039L348.412 117.666C351.906 114.172 351.906 108.497 348.412 105.003L334.992 91.5862C331.497 88.0922 325.822 88.0922 322.327 91.5862L306.95 106.96L282.012 81.9706ZM326.465 180.083L306.223 159.846L323.585 142.487L343.826 162.753L326.465 180.111V180.083ZM280.139 133.794L259.897 113.557L277.259 96.1983L297.501 116.436L280.139 133.794Z" fill="#21005D"/>
</svg>
