<svg width="1500" height="600" viewBox="0 0 1500 600" fill="none" xmlns="http://www.w3.org/2000/svg">
<g id="LEVEL CARD">
<rect width="1500" height="600" fill="#32353B"/>
<circle id="PROFILE" cx="274" cy="276" r="256" fill="black"/>
<rect id="Rectangle 1" x="620" y="28" width="861" height="121" rx="25" fill="#40444B"/>
<rect id="PROGRESS BAR" y="556" width="1500" height="44" fill="#40444B"/>
<path id="PROGRESS" d="M0 556H306C318.15 556 328 565.85 328 578V578C328 590.15 318.15 600 306 600H0V556Z" fill="#2B5195"/>
<rect id="Rectangle 3" x="1129" y="422" width="352" height="110" rx="25" fill="#40444B"/>
<rect id="Rectangle 4" x="620" y="422" width="487" height="110" rx="25" fill="#40444B"/>
<path id="USERNAME" d="M708.219 53.75H717.219V99.9219C717.219 105.047 716.078 109.312 713.797 112.719C711.516 116.125 708.484 118.688 704.703 120.406C700.953 122.094 696.875 122.938 692.469 122.938C687.844 122.938 683.656 122.094 679.906 120.406C676.188 118.688 673.234 116.125 671.047 112.719C668.891 109.312 667.812 105.047 667.812 99.9219V53.75H676.766V99.9219C676.766 103.484 677.422 106.422 678.734 108.734C680.047 111.047 681.875 112.766 684.219 113.891C686.594 115.016 689.344 115.578 692.469 115.578C695.625 115.578 698.375 115.016 700.719 113.891C703.094 112.766 704.938 111.047 706.25 108.734C707.562 106.422 708.219 103.484 708.219 99.9219V53.75ZM767.797 104.75C767.797 103.156 767.547 101.75 767.047 100.531C766.578 99.2812 765.734 98.1562 764.516 97.1562C763.328 96.1562 761.672 95.2031 759.547 94.2969C757.453 93.3906 754.797 92.4688 751.578 91.5312C748.203 90.5312 745.156 89.4219 742.438 88.2031C739.719 86.9531 737.391 85.5312 735.453 83.9375C733.516 82.3438 732.031 80.5156 731 78.4531C729.969 76.3906 729.453 74.0312 729.453 71.375C729.453 68.7188 730 66.2656 731.094 64.0156C732.188 61.7656 733.75 59.8125 735.781 58.1562C737.844 56.4688 740.297 55.1562 743.141 54.2188C745.984 53.2812 749.156 52.8125 752.656 52.8125C757.781 52.8125 762.125 53.7969 765.688 55.7656C769.281 57.7031 772.016 60.25 773.891 63.4062C775.766 66.5312 776.703 69.875 776.703 73.4375H767.703C767.703 70.875 767.156 68.6094 766.062 66.6406C764.969 64.6406 763.312 63.0781 761.094 61.9531C758.875 60.7969 756.062 60.2188 752.656 60.2188C749.438 60.2188 746.781 60.7031 744.688 61.6719C742.594 62.6406 741.031 63.9531 740 65.6094C739 67.2656 738.5 69.1562 738.5 71.2812C738.5 72.7188 738.797 74.0312 739.391 75.2188C740.016 76.375 740.969 77.4531 742.25 78.4531C743.562 79.4531 745.219 80.375 747.219 81.2188C749.25 82.0625 751.672 82.875 754.484 83.6562C758.359 84.75 761.703 85.9688 764.516 87.3125C767.328 88.6562 769.641 90.1719 771.453 91.8594C773.297 93.5156 774.656 95.4062 775.531 97.5312C776.438 99.625 776.891 102 776.891 104.656C776.891 107.438 776.328 109.953 775.203 112.203C774.078 114.453 772.469 116.375 770.375 117.969C768.281 119.562 765.766 120.797 762.828 121.672C759.922 122.516 756.672 122.938 753.078 122.938C749.922 122.938 746.812 122.5 743.75 121.625C740.719 120.75 737.953 119.438 735.453 117.688C732.984 115.938 731 113.781 729.5 111.219C728.031 108.625 727.297 105.625 727.297 102.219H736.297C736.297 104.562 736.75 106.578 737.656 108.266C738.562 109.922 739.797 111.297 741.359 112.391C742.953 113.484 744.75 114.297 746.75 114.828C748.781 115.328 750.891 115.578 753.078 115.578C756.234 115.578 758.906 115.141 761.094 114.266C763.281 113.391 764.938 112.141 766.062 110.516C767.219 108.891 767.797 106.969 767.797 104.75ZM831.781 114.641V122H795.641V114.641H831.781ZM797.469 53.75V122H788.422V53.75H797.469ZM827 83.0938V90.4531H795.641V83.0938H827ZM831.312 53.75V61.1562H795.641V53.75H831.312ZM842.984 53.75H865.578C870.703 53.75 875.031 54.5312 878.562 56.0938C882.125 57.6562 884.828 59.9688 886.672 63.0312C888.547 66.0625 889.484 69.7969 889.484 74.2344C889.484 77.3594 888.844 80.2188 887.562 82.8125C886.312 85.375 884.5 87.5625 882.125 89.375C879.781 91.1562 876.969 92.4844 873.688 93.3594L871.156 94.3438H849.922L849.828 86.9844H865.859C869.109 86.9844 871.812 86.4219 873.969 85.2969C876.125 84.1406 877.75 82.5938 878.844 80.6562C879.938 78.7188 880.484 76.5781 880.484 74.2344C880.484 71.6094 879.969 69.3125 878.938 67.3438C877.906 65.375 876.281 63.8594 874.062 62.7969C871.875 61.7031 869.047 61.1562 865.578 61.1562H852.031V122H842.984V53.75ZM882.875 122L866.281 91.0625L875.703 91.0156L892.531 121.438V122H882.875ZM954.641 53.75V122H945.547L911.188 69.3594V122H902.141V53.75H911.188L945.688 106.531V53.75H954.641ZM996.781 59.7969L974.188 122H964.953L990.969 53.75H996.922L996.781 59.7969ZM1015.72 122L993.078 59.7969L992.938 53.75H998.891L1025 122H1015.72ZM1014.55 96.7344V104.141H976.203V96.7344H1014.55ZM1037 53.75H1045.77L1068.12 109.391L1090.44 53.75H1099.25L1071.5 122H1064.66L1037 53.75ZM1034.14 53.75H1041.88L1043.14 95.375V122H1034.14V53.75ZM1094.33 53.75H1102.06V122H1093.06V95.375L1094.33 53.75ZM1161.31 114.641V122H1125.17V114.641H1161.31ZM1127 53.75V122H1117.95V53.75H1127ZM1156.53 83.0938V90.4531H1125.17V83.0938H1156.53ZM1160.84 53.75V61.1562H1125.17V53.75H1160.84ZM1177.67 122L1190.94 53.75H1197.69L1184.38 122H1177.67ZM1196.75 122L1210.06 53.75H1216.77L1203.45 122H1196.75ZM1222.48 79.7656H1173.73V73.25H1222.48V79.7656ZM1218.97 102.781H1170.17V96.3125H1218.97V102.781ZM1257.92 53.375V122H1249.25V64.2031L1231.77 70.5781V62.75L1256.56 53.375H1257.92ZM1328.14 114.875V122H1283.47V115.766L1305.83 90.875C1308.58 87.8125 1310.7 85.2188 1312.2 83.0938C1313.73 80.9375 1314.8 79.0156 1315.39 77.3281C1316.02 75.6094 1316.33 73.8594 1316.33 72.0781C1316.33 69.8281 1315.86 67.7969 1314.92 65.9844C1314.02 64.1406 1312.67 62.6719 1310.89 61.5781C1309.11 60.4844 1306.95 59.9375 1304.42 59.9375C1301.39 59.9375 1298.86 60.5312 1296.83 61.7188C1294.83 62.875 1293.33 64.5 1292.33 66.5938C1291.33 68.6875 1290.83 71.0938 1290.83 73.8125H1282.16C1282.16 69.9688 1283 66.4531 1284.69 63.2656C1286.38 60.0781 1288.88 57.5469 1292.19 55.6719C1295.5 53.7656 1299.58 52.8125 1304.42 52.8125C1308.73 52.8125 1312.42 53.5781 1315.48 55.1094C1318.55 56.6094 1320.89 58.7344 1322.52 61.4844C1324.17 64.2031 1325 67.3906 1325 71.0469C1325 73.0469 1324.66 75.0781 1323.97 77.1406C1323.31 79.1719 1322.39 81.2031 1321.2 83.2344C1320.05 85.2656 1318.69 87.2656 1317.12 89.2344C1315.59 91.2031 1313.95 93.1406 1312.2 95.0469L1293.92 114.875H1328.14ZM1350.08 83.6094H1356.27C1359.3 83.6094 1361.8 83.1094 1363.77 82.1094C1365.77 81.0781 1367.25 79.6875 1368.22 77.9375C1369.22 76.1562 1369.72 74.1562 1369.72 71.9375C1369.72 69.3125 1369.28 67.1094 1368.41 65.3281C1367.53 63.5469 1366.22 62.2031 1364.47 61.2969C1362.72 60.3906 1360.5 59.9375 1357.81 59.9375C1355.38 59.9375 1353.22 60.4219 1351.34 61.3906C1349.5 62.3281 1348.05 63.6719 1346.98 65.4219C1345.95 67.1719 1345.44 69.2344 1345.44 71.6094H1336.77C1336.77 68.1406 1337.64 64.9844 1339.39 62.1406C1341.14 59.2969 1343.59 57.0312 1346.75 55.3438C1349.94 53.6562 1353.62 52.8125 1357.81 52.8125C1361.94 52.8125 1365.55 53.5469 1368.64 55.0156C1371.73 56.4531 1374.14 58.6094 1375.86 61.4844C1377.58 64.3281 1378.44 67.875 1378.44 72.125C1378.44 73.8438 1378.03 75.6875 1377.22 77.6562C1376.44 79.5938 1375.2 81.4062 1373.52 83.0938C1371.86 84.7812 1369.7 86.1719 1367.05 87.2656C1364.39 88.3281 1361.2 88.8594 1357.48 88.8594H1350.08V83.6094ZM1350.08 90.7344V85.5312H1357.48C1361.83 85.5312 1365.42 86.0469 1368.27 87.0781C1371.11 88.1094 1373.34 89.4844 1374.97 91.2031C1376.62 92.9219 1377.78 94.8125 1378.44 96.875C1379.12 98.9062 1379.47 100.938 1379.47 102.969C1379.47 106.156 1378.92 108.984 1377.83 111.453C1376.77 113.922 1375.25 116.016 1373.28 117.734C1371.34 119.453 1369.06 120.75 1366.44 121.625C1363.81 122.5 1360.95 122.938 1357.86 122.938C1354.89 122.938 1352.09 122.516 1349.47 121.672C1346.88 120.828 1344.58 119.609 1342.58 118.016C1340.58 116.391 1339.02 114.406 1337.89 112.062C1336.77 109.688 1336.2 106.984 1336.2 103.953H1344.88C1344.88 106.328 1345.39 108.406 1346.42 110.188C1347.48 111.969 1348.98 113.359 1350.92 114.359C1352.89 115.328 1355.2 115.812 1357.86 115.812C1360.52 115.812 1362.8 115.359 1364.7 114.453C1366.64 113.516 1368.12 112.109 1369.16 110.234C1370.22 108.359 1370.75 106 1370.75 103.156C1370.75 100.312 1370.16 97.9844 1368.97 96.1719C1367.78 94.3281 1366.09 92.9688 1363.91 92.0938C1361.75 91.1875 1359.2 90.7344 1356.27 90.7344H1350.08ZM1437.55 99.0312V106.156H1388.23V101.047L1418.8 53.75H1425.88L1418.28 67.4375L1398.08 99.0312H1437.55ZM1428.03 53.75V122H1419.36V53.75H1428.03Z" fill="#94969B"/>
</g>
</svg>
