<svg width="575" height="251" viewBox="0 0 575 251" fill="none" xmlns="http://www.w3.org/2000/svg">
<rect width="575" height="251" rx="20" fill="#EADDFF"/>
<rect x="86" y="21" width="402" height="34" rx="17" fill="#474747"/>
<path d="M281.012 81.9706C278.384 79.3431 274.134 79.3431 271.534 81.9706L244.695 108.805C242.067 111.432 242.067 115.681 244.695 118.281L269.689 143.27L265.356 147.603C258.45 144.416 250.79 142.627 242.71 142.627C233.847 142.627 225.516 144.779 218.163 148.553C215.647 149.867 215.283 153.221 217.296 155.206L247.379 185.31L242.794 189.894C242.067 189.699 241.284 189.587 240.473 189.587C235.525 189.587 231.527 193.584 231.527 198.531C231.527 203.479 235.525 207.476 240.473 207.476C245.422 207.476 249.42 203.479 249.42 198.531C249.42 197.721 249.308 196.966 249.112 196.211L253.697 191.627L283.78 221.704C285.793 223.716 289.148 223.353 290.434 220.837C294.236 213.486 296.389 205.156 296.389 196.295C296.389 188.217 294.599 180.558 291.412 173.682L295.746 169.349L320.712 194.339C323.34 196.966 327.59 196.966 330.19 194.339L357.029 167.504C359.657 164.877 359.657 160.628 357.029 158.029L332.035 133.039L347.412 117.666C350.906 114.172 350.906 108.497 347.412 105.003L333.992 91.5862C330.497 88.0922 324.822 88.0922 321.327 91.5862L305.95 106.96L281.012 81.9706ZM325.465 180.083L305.223 159.846L322.585 142.487L342.826 162.753L325.465 180.111V180.083ZM279.139 133.794L258.897 113.557L276.259 96.1983L296.501 116.436L279.139 133.794V133.794Z" fill="#21005D"/>
</svg>
