<svg width="128" height="128" viewBox="0 0 128 128" fill="none" xmlns="http://www.w3.org/2000/svg">
<path fill-rule="evenodd" clip-rule="evenodd" d="M120.544 94.0064C125.303 85.0568 128 74.8433 128 64C128 28.6538 99.3462 0 64 0C28.6538 0 0 28.6538 0 64C0 99.3462 28.6538 128 64 128C78.2987 128 91.5022 123.311 102.157 115.387C95.5985 118.942 87.829 121 79.5 121C56.0279 121 37 104.658 37 84.5C37 64.3416 56.0279 48 79.5 48C102.972 48 122 64.3416 122 84.5C122 87.7885 121.494 90.9754 120.544 94.0064Z" fill="#37009B"/>
</svg>
