<svg width="575" height="251" viewBox="0 0 575 251" fill="none" xmlns="http://www.w3.org/2000/svg">
<rect width="575" height="251" rx="10" fill="#171923"/>
<rect x="0.25" y="0.25" width="574.5" height="250.5" rx="9.75" stroke="white" stroke-opacity="0.16" stroke-width="0.5"/>
<rect x="84" y="21" width="402" height="34" rx="17" fill="#474747"/>
<path d="M279.012 81.9706C276.384 79.3431 272.134 79.3431 269.534 81.9706L242.695 108.805C240.067 111.432 240.067 115.681 242.695 118.281L267.689 143.27L263.356 147.603C256.45 144.416 248.79 142.627 240.71 142.627C231.847 142.627 223.516 144.779 216.163 148.553C213.647 149.867 213.283 153.221 215.296 155.206L245.379 185.31L240.794 189.894C240.067 189.699 239.284 189.587 238.473 189.587C233.525 189.587 229.527 193.584 229.527 198.531C229.527 203.479 233.525 207.476 238.473 207.476C243.422 207.476 247.42 203.479 247.42 198.531C247.42 197.721 247.308 196.966 247.112 196.211L251.697 191.627L281.78 221.704C283.793 223.716 287.148 223.353 288.434 220.837C292.236 213.486 294.389 205.156 294.389 196.295C294.389 188.217 292.599 180.558 289.412 173.682L293.746 169.349L318.712 194.339C321.34 196.966 325.59 196.966 328.19 194.339L355.029 167.505C357.657 164.877 357.657 160.628 355.029 158.029L330.035 133.039L345.412 117.666C348.906 114.172 348.906 108.497 345.412 105.003L331.992 91.5862C328.497 88.0922 322.822 88.0922 319.327 91.5862L303.95 106.96L279.012 81.9706ZM323.465 180.083L303.223 159.846L320.585 142.487L340.826 162.753L323.465 180.111V180.083ZM277.139 133.794L256.897 113.557L274.259 96.1983L294.501 116.436L277.139 133.794Z" fill="#37009B"/>
</svg>
